<svg xmlns="http://www.w3.org/2000/svg" xmlns:xlink="http://www.w3.org/1999/xlink" version="1.1" width="256" height="256" viewBox="0 0 256 256" xml:space="preserve">

<defs>
</defs>
<g style="stroke: none; stroke-width: 0; stroke-dasharray: none; stroke-linecap: butt; stroke-linejoin: miter; stroke-miterlimit: 10; fill: none; fill-rule: nonzero; opacity: 1;" transform="translate(1.4065934065934016 1.4065934065934016) scale(2.81 2.81)" >
	<path d="M 34.135 0.859 c 22.927 0 33.837 4.726 34.134 6.531 c -0.001 0.008 -0.006 0.016 -0.008 0.024 c -0.01 0.049 -0.025 0.1 -0.051 0.153 c -0.007 0.014 -0.02 0.03 -0.028 0.045 c -0.027 0.048 -0.054 0.097 -0.093 0.148 c -0.018 0.024 -0.045 0.05 -0.067 0.075 c -0.037 0.043 -0.071 0.086 -0.117 0.132 c -0.04 0.04 -0.091 0.082 -0.138 0.123 c -0.037 0.032 -0.068 0.063 -0.108 0.096 c -0.056 0.045 -0.122 0.093 -0.186 0.139 c -0.042 0.031 -0.079 0.061 -0.125 0.093 c -0.079 0.055 -0.17 0.111 -0.259 0.168 c -0.039 0.025 -0.072 0.048 -0.113 0.073 c -0.107 0.065 -0.225 0.132 -0.345 0.198 c -0.032 0.018 -0.059 0.035 -0.091 0.052 c -0.134 0.073 -0.28 0.147 -0.43 0.222 c -0.025 0.012 -0.046 0.024 -0.071 0.036 c -0.177 0.087 -0.364 0.174 -0.562 0.263 c -0.001 0 -0.001 0.001 -0.002 0.001 c -0.171 0.076 -0.353 0.153 -0.539 0.23 c -0.032 0.013 -0.06 0.026 -0.092 0.039 c -1.529 0.624 -3.577 1.273 -6.156 1.87 c -0.028 0.006 -0.053 0.013 -0.081 0.019 c -1.073 0.247 -2.241 0.484 -3.498 0.707 c -0.058 0.01 -0.112 0.021 -0.17 0.031 c -0.342 0.06 -0.696 0.118 -1.051 0.175 c -0.104 0.017 -0.202 0.034 -0.307 0.051 c -0.429 0.068 -0.87 0.134 -1.318 0.198 c -0.036 0.005 -0.069 0.011 -0.105 0.016 c -0.86 0.122 -1.761 0.236 -2.692 0.342 c -0.123 0.014 -0.24 0.029 -0.364 0.043 c -0.32 0.036 -0.652 0.068 -0.981 0.101 c -0.217 0.022 -0.428 0.046 -0.649 0.067 c -0.979 0.094 -2 0.177 -3.051 0.251 c -0.139 0.01 -0.272 0.021 -0.412 0.031 c -0.397 0.027 -0.806 0.049 -1.213 0.073 c -0.209 0.012 -0.411 0.026 -0.623 0.037 c -1.123 0.06 -2.289 0.106 -3.487 0.14 c -0.133 0.004 -0.26 0.009 -0.394 0.013 c -0.253 0.007 -0.517 0.01 -0.773 0.015 c -1.101 0.023 -2.224 0.038 -3.386 0.038 c -4.303 0 -8.183 -0.167 -11.649 -0.449 C 7.474 12.248 0.229 8.851 0.001 7.392 C 0.288 5.588 11.197 0.859 34.135 0.859 z" style="stroke: none; stroke-width: 1; stroke-dasharray: none; stroke-linecap: butt; stroke-linejoin: miter; stroke-miterlimit: 10; fill: rgb(0,0,0); fill-rule: nonzero; opacity: 1;" transform=" matrix(1 0 0 1 0 0) " stroke-linecap="round" />
	<path d="M 0 82.611 V 63.022 c 0.071 0.038 0.156 0.072 0.229 0.11 c 0.352 0.182 0.72 0.359 1.104 0.53 c 0.119 0.053 0.235 0.108 0.357 0.16 c 0.477 0.203 0.975 0.399 1.493 0.587 c 0.122 0.044 0.249 0.085 0.373 0.129 c 0.436 0.152 0.885 0.299 1.346 0.441 c 0.151 0.046 0.3 0.094 0.454 0.139 c 0.566 0.167 1.145 0.328 1.741 0.48 c 0.125 0.032 0.255 0.062 0.381 0.093 c 0.508 0.126 1.024 0.247 1.55 0.362 c 0.174 0.038 0.347 0.077 0.524 0.115 c 0.631 0.134 1.271 0.263 1.922 0.383 c 0.111 0.021 0.224 0.039 0.336 0.059 c 0.571 0.103 1.148 0.201 1.73 0.294 c 0.186 0.03 0.372 0.06 0.56 0.089 c 0.673 0.104 1.35 0.203 2.033 0.295 c 0.081 0.011 0.163 0.02 0.244 0.031 c 0.625 0.082 1.251 0.158 1.879 0.231 c 0.189 0.022 0.378 0.043 0.567 0.064 c 0.689 0.076 1.378 0.148 2.065 0.213 c 0.03 0.003 0.059 0.005 0.088 0.008 c 0.674 0.063 1.345 0.119 2.012 0.172 c 0.19 0.015 0.378 0.029 0.567 0.044 c 0.633 0.047 1.262 0.091 1.883 0.13 c 0.053 0.003 0.106 0.007 0.159 0.011 c 0.671 0.041 1.329 0.075 1.981 0.106 c 0.175 0.008 0.348 0.016 0.521 0.024 c 0.566 0.025 1.125 0.047 1.672 0.065 c 0.087 0.003 0.177 0.007 0.263 0.009 c 0.615 0.019 1.213 0.033 1.798 0.043 c 0.159 0.003 0.314 0.005 0.471 0.007 c 0.485 0.007 0.958 0.012 1.419 0.013 c 0.077 0 0.161 0.002 0.237 0.002 v 17.813 c 0 1.019 0.213 1.988 0.594 2.869 c -0.14 0.001 -0.279 0.001 -0.418 0.001 C 11.185 89.141 0.273 84.405 0 82.611 z" style="stroke: none; stroke-width: 1; stroke-dasharray: none; stroke-linecap: butt; stroke-linejoin: miter; stroke-miterlimit: 10; fill: rgb(0,0,0); fill-rule: nonzero; opacity: 1;" transform=" matrix(1 0 0 1 0 0) " stroke-linecap="round" />
	<path d="M 68.064 12.972 c -0.368 0.191 -0.754 0.376 -1.157 0.555 c -0.108 0.048 -0.212 0.097 -0.323 0.144 c -0.485 0.207 -0.992 0.406 -1.52 0.597 c -0.115 0.042 -0.236 0.081 -0.353 0.122 c -0.452 0.157 -0.917 0.309 -1.396 0.456 c -0.137 0.042 -0.272 0.085 -0.412 0.126 c -0.575 0.169 -1.164 0.332 -1.771 0.486 c -0.127 0.032 -0.258 0.063 -0.386 0.094 c -0.516 0.128 -1.041 0.25 -1.576 0.367 c -0.163 0.036 -0.324 0.072 -0.488 0.107 c -0.637 0.135 -1.283 0.263 -1.939 0.384 c -0.133 0.024 -0.267 0.047 -0.401 0.071 c -0.559 0.1 -1.123 0.195 -1.693 0.286 c -0.183 0.029 -0.364 0.059 -0.548 0.087 c -0.673 0.103 -1.351 0.202 -2.033 0.292 c -0.126 0.017 -0.251 0.032 -0.377 0.048 c -0.591 0.077 -1.184 0.149 -1.777 0.216 c -0.187 0.021 -0.374 0.043 -0.562 0.064 c -0.689 0.075 -1.377 0.147 -2.063 0.211 c -0.107 0.01 -0.214 0.019 -0.321 0.028 c -0.604 0.055 -1.205 0.105 -1.803 0.152 c -0.188 0.015 -0.376 0.029 -0.563 0.043 c -0.679 0.05 -1.353 0.097 -2.017 0.137 c -0.073 0.004 -0.143 0.008 -0.216 0.012 c -0.614 0.036 -1.219 0.067 -1.817 0.095 c -0.169 0.008 -0.336 0.016 -0.504 0.023 c -0.648 0.028 -1.289 0.053 -1.911 0.072 c -0.031 0.001 -0.061 0.001 -0.093 0.002 c -0.599 0.018 -1.18 0.03 -1.75 0.04 c -0.153 0.003 -0.304 0.005 -0.455 0.007 c -0.585 0.008 -1.158 0.013 -1.705 0.013 s -1.121 -0.005 -1.705 -0.013 c -0.151 -0.002 -0.302 -0.004 -0.455 -0.007 c -0.57 -0.01 -1.151 -0.022 -1.75 -0.04 c -0.031 -0.001 -0.061 -0.001 -0.093 -0.002 c -0.623 -0.019 -1.263 -0.044 -1.911 -0.072 c -0.167 -0.007 -0.335 -0.015 -0.504 -0.023 c -0.598 -0.028 -1.203 -0.059 -1.817 -0.095 c -0.072 -0.004 -0.143 -0.008 -0.216 -0.012 c -0.665 -0.04 -1.339 -0.087 -2.017 -0.137 c -0.188 -0.014 -0.375 -0.029 -0.564 -0.043 c -0.598 -0.047 -1.199 -0.097 -1.803 -0.152 c -0.107 -0.01 -0.214 -0.018 -0.321 -0.028 c -0.686 -0.064 -1.374 -0.135 -2.063 -0.211 c -0.187 -0.021 -0.374 -0.042 -0.562 -0.064 c -0.594 -0.068 -1.186 -0.14 -1.777 -0.216 c -0.126 -0.016 -0.252 -0.031 -0.377 -0.048 c -0.682 -0.091 -1.359 -0.189 -2.033 -0.292 c -0.184 -0.028 -0.365 -0.058 -0.548 -0.087 c -0.569 -0.091 -1.134 -0.186 -1.693 -0.286 c -0.133 -0.024 -0.268 -0.046 -0.401 -0.071 c -0.657 -0.121 -1.302 -0.25 -1.939 -0.384 c -0.164 -0.035 -0.326 -0.071 -0.488 -0.107 c -0.534 -0.117 -1.06 -0.239 -1.576 -0.367 c -0.128 -0.032 -0.259 -0.062 -0.386 -0.094 c -0.606 -0.154 -1.196 -0.317 -1.771 -0.486 c -0.139 -0.041 -0.274 -0.084 -0.412 -0.126 C 4.476 14.7 4.01 14.548 3.558 14.39 c -0.117 -0.041 -0.238 -0.08 -0.353 -0.122 c -0.528 -0.191 -1.035 -0.39 -1.52 -0.597 c -0.11 -0.047 -0.215 -0.096 -0.323 -0.144 c -0.403 -0.179 -0.788 -0.364 -1.157 -0.555 C 0.14 12.939 0.064 12.908 0 12.874 v 19.589 c 0.273 1.794 11.185 6.531 34.135 6.531 c 1.759 0 3.438 -0.031 5.056 -0.083 c 0.669 -0.022 1.325 -0.047 1.97 -0.077 c 0.976 -0.045 1.933 -0.096 2.854 -0.158 c 0.423 -0.028 0.834 -0.061 1.246 -0.093 c 0.172 -0.013 0.349 -0.025 0.519 -0.039 c 0.358 -0.029 0.703 -0.062 1.052 -0.093 c 0.215 -0.019 0.437 -0.037 0.648 -0.058 c 1.537 -0.148 2.98 -0.319 4.342 -0.508 c 0.112 -0.015 0.229 -0.03 0.34 -0.046 c 0.372 -0.053 0.732 -0.108 1.091 -0.164 c 0.109 -0.017 0.224 -0.033 0.333 -0.05 c 6.949 -1.1 11.364 -2.66 13.39 -3.893 c 0.001 -0.001 0.003 -0.002 0.004 -0.002 c 0.113 -0.069 0.214 -0.136 0.313 -0.203 c 0.019 -0.013 0.042 -0.027 0.061 -0.04 c 0.084 -0.058 0.156 -0.115 0.229 -0.171 c 0.026 -0.02 0.057 -0.041 0.081 -0.061 c 0.053 -0.043 0.095 -0.085 0.142 -0.127 c 0.034 -0.031 0.074 -0.063 0.105 -0.094 c 0.028 -0.028 0.048 -0.055 0.073 -0.082 c 0.038 -0.042 0.08 -0.085 0.111 -0.126 c 0.012 -0.016 0.018 -0.031 0.029 -0.047 c 0.034 -0.05 0.068 -0.099 0.091 -0.146 c 0.005 -0.01 0.005 -0.019 0.009 -0.028 c 0.022 -0.051 0.041 -0.102 0.048 -0.149 V 12.874 C 68.205 12.908 68.13 12.938 68.064 12.972 z M 35.099 30.847 H 33.17 c -1.212 0 -2.195 -0.983 -2.195 -2.195 s 0.983 -2.195 2.195 -2.195 h 1.929 c 1.212 0 2.195 0.983 2.195 2.195 S 36.311 30.847 35.099 30.847 z" style="stroke: none; stroke-width: 1; stroke-dasharray: none; stroke-linecap: butt; stroke-linejoin: miter; stroke-miterlimit: 10; fill: rgb(0,0,0); fill-rule: nonzero; opacity: 1;" transform=" matrix(1 0 0 1 0 0) " stroke-linecap="round" />
	<path d="M 68.064 38.046 c -0.368 0.191 -0.754 0.376 -1.157 0.555 c -0.108 0.048 -0.212 0.097 -0.323 0.144 c -0.485 0.207 -0.992 0.406 -1.52 0.597 c -0.115 0.042 -0.236 0.081 -0.353 0.122 c -0.452 0.157 -0.917 0.309 -1.396 0.456 c -0.137 0.042 -0.272 0.085 -0.412 0.126 c -0.575 0.169 -1.164 0.332 -1.771 0.486 c -0.127 0.032 -0.258 0.063 -0.386 0.094 c -0.516 0.128 -1.041 0.25 -1.576 0.367 c -0.163 0.036 -0.324 0.072 -0.488 0.107 c -0.637 0.135 -1.283 0.263 -1.939 0.384 c -0.133 0.024 -0.267 0.047 -0.401 0.071 c -0.559 0.1 -1.123 0.195 -1.693 0.286 c -0.183 0.029 -0.364 0.059 -0.548 0.087 c -0.673 0.103 -1.351 0.202 -2.033 0.292 c -0.126 0.017 -0.251 0.032 -0.377 0.048 c -0.591 0.077 -1.184 0.149 -1.777 0.216 c -0.187 0.021 -0.374 0.043 -0.562 0.064 c -0.689 0.075 -1.377 0.147 -2.063 0.211 c -0.107 0.01 -0.214 0.019 -0.321 0.028 c -0.604 0.055 -1.205 0.105 -1.803 0.152 c -0.188 0.015 -0.376 0.029 -0.563 0.043 c -0.679 0.05 -1.353 0.097 -2.017 0.137 c -0.073 0.004 -0.143 0.008 -0.216 0.012 c -0.614 0.036 -1.219 0.067 -1.817 0.095 c -0.169 0.008 -0.336 0.016 -0.504 0.023 c -0.648 0.028 -1.289 0.053 -1.911 0.072 c -0.031 0.001 -0.061 0.001 -0.093 0.002 c -0.599 0.018 -1.18 0.03 -1.75 0.04 c -0.153 0.003 -0.304 0.005 -0.455 0.007 c -0.585 0.008 -1.158 0.013 -1.705 0.013 s -1.121 -0.005 -1.705 -0.013 c -0.151 -0.002 -0.302 -0.004 -0.455 -0.007 c -0.57 -0.01 -1.151 -0.022 -1.75 -0.04 c -0.031 -0.001 -0.061 -0.001 -0.093 -0.002 c -0.623 -0.019 -1.263 -0.044 -1.911 -0.072 c -0.167 -0.007 -0.335 -0.015 -0.504 -0.023 c -0.598 -0.028 -1.203 -0.059 -1.817 -0.095 c -0.072 -0.004 -0.143 -0.008 -0.216 -0.012 c -0.665 -0.04 -1.339 -0.087 -2.017 -0.137 c -0.188 -0.014 -0.375 -0.029 -0.564 -0.043 c -0.598 -0.047 -1.199 -0.097 -1.803 -0.152 c -0.107 -0.01 -0.214 -0.018 -0.321 -0.028 c -0.686 -0.064 -1.374 -0.135 -2.063 -0.211 c -0.187 -0.021 -0.374 -0.042 -0.562 -0.064 c -0.594 -0.068 -1.186 -0.14 -1.777 -0.216 c -0.126 -0.016 -0.252 -0.031 -0.377 -0.048 c -0.682 -0.091 -1.359 -0.189 -2.033 -0.292 c -0.184 -0.028 -0.365 -0.058 -0.548 -0.087 c -0.569 -0.091 -1.134 -0.186 -1.693 -0.286 c -0.133 -0.024 -0.268 -0.046 -0.401 -0.071 c -0.657 -0.121 -1.302 -0.25 -1.939 -0.384 c -0.164 -0.035 -0.326 -0.071 -0.488 -0.107 c -0.534 -0.117 -1.06 -0.239 -1.576 -0.367 c -0.128 -0.032 -0.259 -0.062 -0.386 -0.094 c -0.606 -0.154 -1.196 -0.317 -1.771 -0.486 c -0.139 -0.041 -0.274 -0.084 -0.412 -0.126 c -0.478 -0.146 -0.944 -0.298 -1.396 -0.456 c -0.117 -0.041 -0.238 -0.08 -0.353 -0.122 c -0.528 -0.191 -1.035 -0.39 -1.52 -0.597 c -0.11 -0.047 -0.215 -0.096 -0.323 -0.144 c -0.403 -0.179 -0.788 -0.364 -1.157 -0.555 C 0.14 38.012 0.064 37.982 0 37.947 v 19.59 c 0.273 1.794 11.185 6.531 34.135 6.531 c 0.06 0 0.118 -0.001 0.178 -0.001 c 0.47 -1.453 1.388 -2.701 2.589 -3.594 c 0.011 -0.008 0.021 -0.016 0.032 -0.024 c 0.297 -0.219 0.61 -0.417 0.939 -0.589 c 0 0 0.001 0 0.001 -0.001 c 0.317 -0.165 0.648 -0.306 0.991 -0.424 c 0.028 -0.01 0.055 -0.021 0.083 -0.03 c 0.327 -0.108 0.664 -0.191 1.009 -0.252 c 0.065 -0.012 0.131 -0.02 0.197 -0.03 c 0.349 -0.052 0.703 -0.087 1.067 -0.087 h 16.254 c 1.751 0 3.176 -1.424 3.176 -3.176 c 0 -4.172 3.393 -7.566 7.565 -7.566 h 0.056 V 37.947 C 68.205 37.982 68.13 38.012 68.064 38.046 z M 35.099 55.921 H 33.17 c -1.212 0 -2.195 -0.983 -2.195 -2.195 c 0 -1.212 0.983 -2.195 2.195 -2.195 h 1.929 c 1.212 0 2.195 0.983 2.195 2.195 C 37.294 54.938 36.311 55.921 35.099 55.921 z" style="stroke: none; stroke-width: 1; stroke-dasharray: none; stroke-linecap: butt; stroke-linejoin: miter; stroke-miterlimit: 10; fill: rgb(0,0,0); fill-rule: nonzero; opacity: 1;" transform=" matrix(1 0 0 1 0 0) " stroke-linecap="round" />
	<path d="M 87.13 52.684 H 70.465 h -2.251 c -1.75 0 -3.175 1.424 -3.175 3.176 c 0 4.172 -3.395 7.566 -7.566 7.566 H 41.219 c -1.565 0 -2.851 1.275 -2.865 2.844 c 0 0.003 -0.001 0.006 -0.001 0.009 c -0.001 0.036 -0.001 0.073 -0.004 0.111 v 19.882 c 0 0.182 0.021 0.359 0.054 0.531 c 0.015 0.077 0.039 0.15 0.06 0.224 c 0.025 0.09 0.05 0.18 0.083 0.266 c 0.035 0.09 0.077 0.176 0.12 0.261 c 0.032 0.063 0.065 0.126 0.102 0.187 c 0.054 0.089 0.112 0.175 0.175 0.258 c 0.037 0.049 0.077 0.096 0.118 0.143 c 0.071 0.082 0.144 0.162 0.224 0.235 c 0.042 0.039 0.088 0.073 0.133 0.11 c 0.087 0.071 0.174 0.142 0.269 0.202 c 0.041 0.026 0.085 0.046 0.128 0.069 c 0.245 0.139 0.508 0.25 0.793 0.312 c 0.014 0.003 0.027 0.01 0.041 0.013 c 0.185 0.037 0.375 0.058 0.571 0.058 H 87.13 c 1.583 0 2.87 -1.287 2.87 -2.87 V 55.554 C 90 53.971 88.713 52.684 87.13 52.684 z M 82.466 84.138 H 46.502 c -1.212 0 -2.195 -0.983 -2.195 -2.195 s 0.983 -2.195 2.195 -2.195 h 35.964 c 1.212 0 2.195 0.983 2.195 2.195 S 83.678 84.138 82.466 84.138 z" style="stroke: none; stroke-width: 1; stroke-dasharray: none; stroke-linecap: butt; stroke-linejoin: miter; stroke-miterlimit: 10; fill: rgb(0,0,0); fill-rule: nonzero; opacity: 1;" transform=" matrix(1 0 0 1 0 0) " stroke-linecap="round" />
</g>
</svg>