<svg xmlns="http://www.w3.org/2000/svg" xmlns:xlink="http://www.w3.org/1999/xlink" version="1.1" width="256" height="256" viewBox="0 0 256 256" xml:space="preserve">

<defs>
</defs>
<g style="stroke: none; stroke-width: 0; stroke-dasharray: none; stroke-linecap: butt; stroke-linejoin: miter; stroke-miterlimit: 10; fill: none; fill-rule: nonzero; opacity: 1;" transform="translate(1.4065934065934016 1.4065934065934016) scale(2.81 2.81)" >
	<path d="M 45 0 C 20.147 0 0 20.147 0 45 c 0 24.853 20.147 45 45 45 s 45 -20.147 45 -45 C 90 20.147 69.853 0 45 0 z M 30.051 61.949 c 0 0.141 -0.018 0.282 -0.048 0.421 c -0.009 0.044 -0.026 0.085 -0.038 0.128 c -0.026 0.092 -0.056 0.183 -0.096 0.272 c -0.022 0.049 -0.048 0.094 -0.074 0.141 c -0.042 0.076 -0.087 0.149 -0.14 0.22 c -0.036 0.048 -0.074 0.094 -0.114 0.139 c -0.027 0.03 -0.047 0.064 -0.076 0.094 c -0.033 0.033 -0.071 0.056 -0.105 0.086 c -0.026 0.023 -0.046 0.051 -0.073 0.072 c -0.014 0.011 -0.032 0.014 -0.046 0.025 c -0.159 0.119 -0.329 0.212 -0.509 0.277 c -0.029 0.011 -0.059 0.017 -0.088 0.026 c -0.193 0.06 -0.392 0.099 -0.593 0.099 c -0.146 0 -0.291 -0.02 -0.433 -0.052 c -0.013 -0.003 -0.027 -0.002 -0.04 -0.005 l -6.914 -1.684 c -1.073 -0.262 -1.731 -1.344 -1.47 -2.417 c 0.262 -1.073 1.343 -1.734 2.417 -1.47 l 1.294 0.315 c -6.184 -10.016 -4.944 -23.349 3.732 -32.026 c 7.144 -7.146 17.89 -9.504 27.375 -6.01 c 1.036 0.382 1.567 1.532 1.186 2.568 c -0.382 1.036 -1.529 1.567 -2.568 1.186 c -8.027 -2.957 -17.118 -0.96 -23.165 5.084 c -7.21 7.21 -8.331 18.211 -3.414 26.63 v -1.271 c 0 -1.104 0.896 -2 2 -2 s 2 0.896 2 2 V 61.949 z M 63.363 63.389 c -4.979 4.979 -11.609 7.622 -18.368 7.622 c -3.29 0 -6.61 -0.626 -9.786 -1.914 c -1.023 -0.415 -1.517 -1.582 -1.102 -2.605 c 0.415 -1.024 1.58 -1.518 2.605 -1.102 c 8.207 3.329 17.558 1.434 23.822 -4.829 c 7.209 -7.21 8.331 -18.212 3.414 -26.63 v 1.271 c 0 1.104 -0.896 2 -2 2 s -2 -0.896 -2 -2 v -7.15 c 0 -0.141 0.018 -0.282 0.048 -0.421 c 0.009 -0.043 0.025 -0.084 0.038 -0.127 c 0.027 -0.093 0.057 -0.184 0.097 -0.274 c 0.022 -0.048 0.047 -0.092 0.073 -0.138 c 0.042 -0.077 0.089 -0.152 0.142 -0.224 c 0.035 -0.048 0.072 -0.092 0.112 -0.137 c 0.027 -0.031 0.048 -0.065 0.077 -0.094 c 0.033 -0.033 0.071 -0.056 0.105 -0.086 c 0.026 -0.023 0.046 -0.051 0.074 -0.073 c 0.02 -0.015 0.043 -0.024 0.063 -0.039 c 0.075 -0.055 0.154 -0.101 0.235 -0.145 c 0.044 -0.023 0.086 -0.049 0.131 -0.069 c 0.098 -0.043 0.199 -0.075 0.302 -0.102 c 0.033 -0.009 0.065 -0.022 0.099 -0.029 c 0.138 -0.029 0.278 -0.043 0.418 -0.043 c 0.028 0 0.055 0.007 0.083 0.008 c 0.113 0.005 0.226 0.018 0.337 0.042 c 0.013 0.003 0.027 0.002 0.04 0.005 l 6.913 1.683 c 1.073 0.261 1.731 1.343 1.471 2.417 c -0.262 1.074 -1.35 1.729 -2.416 1.47 l -1.295 -0.315 C 73.279 41.378 72.04 54.711 63.363 63.389 z" style="stroke: none; stroke-width: 1; stroke-dasharray: none; stroke-linecap: butt; stroke-linejoin: miter; stroke-miterlimit: 10; fill: rgb(0,0,0); fill-rule: nonzero; opacity: 1;" transform=" matrix(1 0 0 1 0 0) " stroke-linecap="round" />
</g>
</svg>