<svg xmlns="http://www.w3.org/2000/svg" xmlns:xlink="http://www.w3.org/1999/xlink" version="1.1" width="256" height="256" viewBox="0 0 256 256" xml:space="preserve">

<defs>
</defs>
<g style="stroke: none; stroke-width: 0; stroke-dasharray: none; stroke-linecap: butt; stroke-linejoin: miter; stroke-miterlimit: 10; fill: none; fill-rule: nonzero; opacity: 1;" transform="translate(1.4065934065934016 1.4065934065934016) scale(2.81 2.81)" >
	<path d="M 35.579 33.574 h -3.777 V 60.41 c 0 3.358 2.732 6.09 6.09 6.09 h 14.215 c 3.358 0 6.09 -2.731 6.09 -6.09 V 33.574 h -3.776 H 35.579 z M 42.3 56.78 c 0 1.104 -0.896 2 -2 2 s -2 -0.896 -2 -2 V 41.566 c 0 -1.104 0.896 -2 2 -2 s 2 0.896 2 2 V 56.78 z M 51.7 56.78 c 0 1.104 -0.896 2 -2 2 s -2 -0.896 -2 -2 V 41.566 c 0 -1.104 0.896 -2 2 -2 s 2 0.896 2 2 V 56.78 z" style="stroke: none; stroke-width: 1; stroke-dasharray: none; stroke-linecap: butt; stroke-linejoin: miter; stroke-miterlimit: 10; fill: rgb(0,0,0); fill-rule: nonzero; opacity: 1;" transform=" matrix(1 0 0 1 0 0) " stroke-linecap="round" />
	<path d="M 52.421 26.093 c 0 -1.43 -1.163 -2.593 -2.593 -2.593 h -9.656 c -1.43 0 -2.593 1.163 -2.593 2.593 v 3.481 h 14.842 V 26.093 z" style="stroke: none; stroke-width: 1; stroke-dasharray: none; stroke-linecap: butt; stroke-linejoin: miter; stroke-miterlimit: 10; fill: rgb(0,0,0); fill-rule: nonzero; opacity: 1;" transform=" matrix(1 0 0 1 0 0) " stroke-linecap="round" />
	<path d="M 45 0 C 20.147 0 0 20.147 0 45 c 0 24.853 20.147 45 45 45 s 45 -20.147 45 -45 C 90 20.147 69.853 0 45 0 z M 65.592 33.574 h -3.395 V 60.41 c 0 5.563 -4.526 10.09 -10.09 10.09 H 37.892 c -5.563 0 -10.09 -4.526 -10.09 -10.09 V 33.574 h -3.394 c -1.104 0 -2 -0.896 -2 -2 s 0.896 -2 2 -2 h 5.394 h 3.777 v -3.481 c 0 -3.635 2.958 -6.593 6.593 -6.593 h 9.656 c 3.636 0 6.593 2.958 6.593 6.593 v 3.481 h 3.776 h 5.395 c 1.104 0 2 0.896 2 2 S 66.696 33.574 65.592 33.574 z" style="stroke: none; stroke-width: 1; stroke-dasharray: none; stroke-linecap: butt; stroke-linejoin: miter; stroke-miterlimit: 10; fill: rgb(0,0,0); fill-rule: nonzero; opacity: 1;" transform=" matrix(1 0 0 1 0 0) " stroke-linecap="round" />
</g>
</svg>